<svg height="512pt" viewBox="-19 0 512 512.00001" width="512pt" xmlns="http://www.w3.org/2000/svg"><path d="m460.226562 481.984375c0-16.578125-41.078124-30.019531-91.75-30.019531-50.671874 0-91.75 13.441406-91.75 30.019531s41.078126 30.015625 91.75 30.015625c50.671876 0 91.75-13.4375 91.75-30.015625zm0 0" fill="#8ecb51"/><path d="m242.691406 82.140625c-6.5625 0-11.882812-5.320313-11.882812-11.878906v-40.730469c0-3.183594-2.585938-5.773438-5.769532-5.773438h-114.046874c-3.179688 0-5.769532 2.589844-5.769532 5.773438v40.730469c0 6.558593-5.320312 11.878906-11.882812 11.878906-6.558594 0-11.878906-5.320313-11.878906-11.878906v-40.730469c0-16.285156 13.25-29.53125 29.53125-29.53125h114.046874c16.285157 0 29.53125 13.246094 29.53125 29.53125v40.730469c0 6.558593-5.320312 11.878906-11.878906 11.878906zm0 0" fill="#c9885b"/><path d="m336.03125 71.636719v194.265625c0 4.496094-.65625 8.832031-1.863281 12.925781-5.570313 18.785156-22.964844 32.5-43.5625 32.5h-245.179688c-25.089843 0-45.42187475-20.34375-45.42187475-45.425781v-194.265625c0-8.34375 6.75781275-15.101563 15.10156275-15.101563h305.824219c8.34375 0 15.101562 6.757813 15.101562 15.101563zm0 0" fill="#daae91"/><path d="m336.03125 71.636719v43.921875c0 12.066406-3.339844 23.359375-9.148438 32.996094-11.203124 18.566406-31.5625 30.984374-54.832031 30.984374h-208.066406c-35.339844 0-63.984375-28.640624-63.984375-63.980468v-43.921875c0-8.34375 6.761719-15.101563 15.105469-15.101563h305.820312c8.347657 0 15.105469 6.757813 15.105469 15.101563zm0 0" fill="#d19a75"/><path d="m334.175781 278.828125c-5.578125 18.777344-22.96875 32.492187-43.570312 32.492187h-245.183594c-25.089844 0-45.421875-20.328124-45.421875-45.421874v-194.257813c0-8.351563 6.765625-15.101563 15.101562-15.101563h15.507813v178.734376c0 25.078124 20.328125 45.421874 45.421875 45.421874h245.179688c4.507812.003907 8.863281-.644531 12.964843-1.867187zm0 0" fill="#d19a75"/><path d="m273.519531 211.058594h-19.707031c-4.117188 0-7.453125-3.335938-7.453125-7.453125v-48.605469c0-4.117188 3.335937-7.453125 7.453125-7.453125h19.707031c4.117188 0 7.453125 3.335937 7.453125 7.453125v48.605469c0 4.117187-3.335937 7.453125-7.453125 7.453125zm0 0" fill="#9b5e34"/><path d="m326.878906 148.558594c-11.195312 18.566406-31.558594 30.984375-54.828125 30.984375h-208.0625c-35.339843 0-63.988281-28.648438-63.988281-63.988281v-43.914063c0-8.351563 6.765625-15.101563 15.101562-15.101563h15.507813v32.777344c0 35.34375 28.648437 63.992188 63.988281 63.992188h208.0625c8.574219-.003906 16.757813-1.6875 24.21875-4.75zm0 0" fill="#c9885b"/><path d="m280.972656 155.003906v23.917969c-2.910156.40625-5.894531.617187-8.921875.617187h-25.695312v-24.535156c0-4.113281 3.34375-7.460937 7.457031-7.460937h19.699219c4.128906 0 7.460937 3.347656 7.460937 7.460937zm0 0" fill="#b56d3c"/><path d="m82.285156 211.058594h-19.703125c-4.117187 0-7.453125-3.335938-7.453125-7.453125v-48.605469c0-4.117188 3.335938-7.453125 7.453125-7.453125h19.703125c4.117188 0 7.457032 3.335937 7.457032 7.453125v48.605469c0 4.117187-3.339844 7.453125-7.457032 7.453125zm0 0" fill="#9b5e34"/><path d="m89.742188 155.003906v23.917969c-2.910157.40625-5.894532.617187-8.921876.617187h-25.695312v-24.535156c0-4.113281 3.34375-7.460937 7.457031-7.460937h19.699219c4.128906 0 7.460938 3.347656 7.460938 7.460937zm0 0" fill="#b56d3c"/><path d="m386.648438 511.40625c-5.878907.386719-11.953126.59375-18.171876.59375-50.675781 0-91.742187-13.4375-91.742187-30.019531 0-16.574219 41.066406-30.007813 91.742187-30.007813 6.21875 0 12.292969.195313 18.171876.589844-41.960938 2.75-73.570313 14.878906-73.570313 29.417969 0 14.546875 31.609375 26.675781 73.570313 29.425781zm0 0" fill="#6ea934"/><path d="m379.371094 468.066406 74.429687-104.648437c48.703125-68.476563 1.902344-164.714844-82.097656-166.84375-88.375-2.238281-138.105469 96.539062-88.820313 166.476562l73.96875 104.96875c5.480469 7.777344 17.003907 7.800781 22.519532.046875zm0 0" fill="#ff72c3"/><path d="m424.550781 299.8125c0 30.96875-25.105469 56.074219-56.074219 56.074219s-56.074218-25.105469-56.074218-56.074219 25.105468-56.070312 56.074218-56.070312 56.074219 25.101562 56.074219 56.070312zm0 0" fill="#fff2de"/><path d="m319.222656 363.054688 67.101563 95.21875-6.957031 9.792968c-5.511719 7.757813-17.039063 7.726563-22.511719-.042968l-73.976563-104.96875c-53.4375-75.839844 9.871094-181.066407 103.871094-165.03125-74.285156 12.398437-112.882812 100.671874-67.527344 165.03125zm0 0" fill="#ff50b5"/><path d="m386.648438 352.878906c-5.703126 1.949219-11.808594 3.011719-18.171876 3.011719-30.964843 0-56.074218-25.109375-56.074218-56.074219 0-30.976562 25.109375-56.074218 56.074218-56.074218 6.363282 0 12.46875 1.058593 18.171876 3.011718-22.046876 7.550782-37.902344 28.453125-37.902344 53.0625s15.855468 45.511719 37.902344 53.0625zm0 0" fill="#ffe4c2"/></svg>