<svg enable-background="new 0 0 32 32" height="512" viewBox="0 0 32 32" width="512" xmlns="http://www.w3.org/2000/svg"><path d="m26 32h-20c-3.314 0-6-2.686-6-6v-20c0-3.314 2.686-6 6-6h20c3.314 0 6 2.686 6 6v20c0 3.314-2.686 6-6 6z" fill="#ffe6e2"/><path d="m22.468 24c-.04 0-.081-.002-.121-.005-7.627-.59-13.792-6.753-14.343-14.334-.031-.425.115-.846.401-1.156.284-.308.672-.479 1.091-.482l3.135-.023c.696 0 1.298.467 1.466 1.136l.655 2.601c.148.589-.072 1.203-.56 1.566l-1.259.938c1.086 1.993 2.756 3.671 4.761 4.786l.974-1.289c.365-.483.98-.701 1.57-.554l2.619.65c.673.166 1.143.765 1.143 1.456v3.209c0 .419-.17.806-.478 1.091-.285.264-.663.41-1.054.41z" fill="#fc573b"/></svg>